<svg width="520" height="503" viewBox="0 0 520 503" fill="none" xmlns="http://www.w3.org/2000/svg">
<path d="M421.8 326.4C405.661 326.4 389.884 331.186 376.465 340.152C363.046 349.118 352.588 361.863 346.411 376.773C340.235 391.683 338.619 408.091 341.768 423.919C344.916 439.748 352.688 454.288 364.1 465.7C375.512 477.112 390.052 484.884 405.881 488.032C421.709 491.181 438.117 489.565 453.027 483.389C467.937 477.212 480.682 466.754 489.648 453.335C498.614 439.916 503.4 424.139 503.4 408C503.316 386.384 494.692 365.678 479.407 350.393C464.122 335.108 443.416 326.484 421.8 326.4ZM474.6 385.6L414.6 445.6C412.443 447.654 409.579 448.8 406.6 448.8C403.621 448.8 400.757 447.654 398.6 445.6L369 416.8C368.436 416.297 367.985 415.681 367.676 414.992C367.367 414.302 367.208 413.555 367.208 412.8C367.208 412.045 367.367 411.298 367.676 410.608C367.985 409.919 368.436 409.303 369 408.8L377 400.8C377.503 400.236 378.119 399.785 378.808 399.476C379.498 399.168 380.245 399.008 381 399.008C381.755 399.008 382.502 399.168 383.192 399.476C383.881 399.785 384.497 400.236 385 400.8L405.8 421.6L457.8 369.6C458.303 369.036 458.919 368.585 459.608 368.276C460.298 367.968 461.045 367.808 461.8 367.808C462.555 367.808 463.302 367.968 463.992 368.276C464.681 368.585 465.297 369.036 465.8 369.6L473.8 377.6C474.884 378.608 475.564 379.976 475.711 381.449C475.858 382.922 475.463 384.398 474.6 385.6Z" fill="black"/>
<path d="M221 92H363.4C365.087 92.0215 366.761 91.7051 368.324 91.0694C369.886 90.4338 371.306 89.4917 372.499 88.2988C373.692 87.1059 374.634 85.6863 375.269 84.1236C375.905 82.561 376.221 80.8868 376.2 79.2V52.8C376.179 42.41 372.042 32.4516 364.695 25.1047C357.348 17.7579 347.39 13.6211 337 13.6H246.6C236.21 13.6211 226.252 17.7579 218.905 25.1047C211.558 32.4516 207.421 42.41 207.4 52.8V79.2C207.659 82.6464 209.199 85.871 211.715 88.2397C214.232 90.6084 217.544 91.9498 221 92Z" fill="black"/>
<path d="M313.8 438.4H116.2C105.936 438.211 96.1578 433.995 88.9741 426.662C81.7905 419.329 77.7772 409.466 77.7999 399.2V127.2H64.9999C54.7361 127.389 44.9578 131.605 37.7741 138.938C30.5905 146.271 26.5772 156.134 26.5999 166.4V449.6C26.5772 459.866 30.5905 469.729 37.7741 477.062C44.9578 484.395 54.7361 488.611 64.9999 488.8H344.2C329.085 475.559 318.461 457.946 313.8 438.4Z" fill="black"/>
<path d="M149.8 408H310.6C311.228 397.939 313.109 387.995 316.2 378.4C320.044 365.361 326.284 353.153 334.6 342.4H259.4C257.713 342.421 256.039 342.105 254.476 341.469C252.914 340.834 251.494 339.892 250.301 338.699C249.108 337.506 248.166 336.086 247.531 334.524C246.895 332.961 246.579 331.287 246.6 329.6V316C246.579 314.313 246.895 312.639 247.531 311.076C248.166 309.514 249.108 308.094 250.301 306.901C251.494 305.708 252.914 304.766 254.476 304.131C256.039 303.495 257.713 303.179 259.4 303.2H389C390.6 303.2 391.4 303.2 392.2 304C401.578 301.385 411.264 300.04 421 300C439.118 299.964 456.969 304.358 473 312.8V85.6C472.979 75.21 468.842 65.2516 461.495 57.9048C454.148 50.5579 444.19 46.4211 433.8 46.4H421C420.141 46.327 419.277 46.4424 418.467 46.7383C417.658 47.0341 416.922 47.5032 416.313 48.1127C415.703 48.7222 415.234 49.4574 414.938 50.267C414.643 51.0767 414.527 51.9411 414.6 52.8V79.2C414.664 93.0848 409.232 106.431 399.489 116.324C389.746 126.217 376.484 131.852 362.6 132H221C207.162 131.708 193.984 126.027 184.272 116.165C174.56 106.304 169.08 93.0409 169 79.2V52.8C169.073 51.9411 168.958 51.0767 168.662 50.267C168.366 49.4574 167.897 48.7222 167.287 48.1127C166.678 47.5032 165.943 47.0341 165.133 46.7383C164.323 46.4424 163.459 46.327 162.6 46.4H149.8C139.41 46.4211 129.452 50.5579 122.105 57.9048C114.758 65.2516 110.621 75.21 110.6 85.6V368C110.719 378.435 114.862 388.42 122.166 395.873C129.47 403.326 139.37 407.671 149.8 408ZM246.6 184C246.579 182.313 246.895 180.639 247.531 179.076C248.166 177.514 249.108 176.094 250.301 174.901C251.494 173.708 252.914 172.766 254.476 172.131C256.039 171.495 257.713 171.179 259.4 171.2H389C390.687 171.179 392.361 171.495 393.924 172.131C395.486 172.766 396.906 173.708 398.099 174.901C399.292 176.094 400.234 177.514 400.87 179.076C401.505 180.639 401.822 182.313 401.8 184V196.8C401.822 198.487 401.505 200.161 400.87 201.724C400.234 203.286 399.292 204.706 398.099 205.899C396.906 207.092 395.486 208.034 393.924 208.669C392.361 209.305 390.687 209.621 389 209.6H260.2C258.513 209.621 256.839 209.305 255.276 208.669C253.714 208.034 252.294 207.092 251.101 205.899C249.908 204.706 248.966 203.286 248.331 201.724C247.695 200.161 247.379 198.487 247.4 196.8V184H246.6ZM246.6 249.6C246.579 247.913 246.895 246.239 247.531 244.676C248.166 243.114 249.108 241.694 250.301 240.501C251.494 239.308 252.914 238.366 254.476 237.731C256.039 237.095 257.713 236.778 259.4 236.8H389C390.687 236.778 392.361 237.095 393.924 237.731C395.486 238.366 396.906 239.308 398.099 240.501C399.292 241.694 400.234 243.114 400.87 244.676C401.505 246.239 401.822 247.913 401.8 249.6V262.4C401.822 264.087 401.505 265.761 400.87 267.324C400.234 268.886 399.292 270.306 398.099 271.499C396.906 272.692 395.486 273.634 393.924 274.269C392.361 274.905 390.687 275.221 389 275.2H260.2C258.513 275.221 256.839 274.905 255.276 274.269C253.714 273.634 252.294 272.692 251.101 271.499C249.908 270.306 248.966 268.886 248.331 267.324C247.695 265.761 247.379 264.087 247.4 262.4V249.6H246.6ZM182.6 184C182.579 182.313 182.895 180.639 183.531 179.076C184.166 177.514 185.108 176.094 186.301 174.901C187.494 173.708 188.914 172.766 190.476 172.131C192.039 171.495 193.713 171.179 195.4 171.2H208.2C209.887 171.179 211.561 171.495 213.124 172.131C214.686 172.766 216.106 173.708 217.299 174.901C218.492 176.094 219.434 177.514 220.07 179.076C220.705 180.639 221.022 182.313 221 184V196.8C221.022 198.487 220.705 200.161 220.07 201.724C219.434 203.286 218.492 204.706 217.299 205.899C216.106 207.092 214.686 208.034 213.124 208.669C211.561 209.305 209.887 209.621 208.2 209.6H195.4C193.713 209.621 192.039 209.305 190.476 208.669C188.914 208.034 187.494 207.092 186.301 205.899C185.108 204.706 184.166 203.286 183.531 201.724C182.895 200.161 182.579 198.487 182.6 196.8V184ZM182.6 249.6C182.579 247.913 182.895 246.239 183.531 244.676C184.166 243.114 185.108 241.694 186.301 240.501C187.494 239.308 188.914 238.366 190.476 237.731C192.039 237.095 193.713 236.778 195.4 236.8H208.2C209.887 236.778 211.561 237.095 213.124 237.731C214.686 238.366 216.106 239.308 217.299 240.501C218.492 241.694 219.434 243.114 220.07 244.676C220.705 246.239 221.022 247.913 221 249.6V262.4C221.022 264.087 220.705 265.761 220.07 267.324C219.434 268.886 218.492 270.306 217.299 271.499C216.106 272.692 214.686 273.634 213.124 274.269C211.561 274.905 209.887 275.221 208.2 275.2H195.4C193.713 275.221 192.039 274.905 190.476 274.269C188.914 273.634 187.494 272.692 186.301 271.499C185.108 270.306 184.166 268.886 183.531 267.324C182.895 265.761 182.579 264.087 182.6 262.4V249.6ZM182.6 316C182.579 314.313 182.895 312.639 183.531 311.076C184.166 309.514 185.108 308.094 186.301 306.901C187.494 305.708 188.914 304.766 190.476 304.131C192.039 303.495 193.713 303.179 195.4 303.2H208.2C209.887 303.179 211.561 303.495 213.124 304.131C214.686 304.766 216.106 305.708 217.299 306.901C218.492 308.094 219.434 309.514 220.07 311.076C220.705 312.639 221.022 314.313 221 316V328.8C221.022 330.487 220.705 332.161 220.07 333.724C219.434 335.286 218.492 336.706 217.299 337.899C216.106 339.092 214.686 340.034 213.124 340.669C211.561 341.305 209.887 341.621 208.2 341.6H195.4C193.713 341.621 192.039 341.305 190.476 340.669C188.914 340.034 187.494 339.092 186.301 337.899C185.108 336.706 184.166 335.286 183.531 333.724C182.895 332.161 182.579 330.487 182.6 328.8V316Z" fill="black"/>
</svg>
