<?xml version="1.0" standalone="no"?>
<!DOCTYPE svg PUBLIC "-//W3C//DTD SVG 20010904//EN"
 "http://www.w3.org/TR/2001/REC-SVG-20010904/DTD/svg10.dtd">
<svg version="1.0" xmlns="http://www.w3.org/2000/svg"
 width="200.000000pt" height="200.000000pt" viewBox="0 0 200.000000 200.000000"
 preserveAspectRatio="xMidYMid meet">

<g transform="translate(0.000000,200.000000) scale(0.100000,-0.100000)"
fill="#000000" stroke="none">
<path d="M352 1648 c-7 -7 -12 -19 -12 -28 0 -8 285 -300 634 -649 533 -533
637 -632 654 -627 12 4 24 16 28 28 5 17 -13 39 -92 119 -54 54 -96 100 -93
102 96 69 176 133 235 189 86 82 184 199 184 220 0 8 -29 48 -63 89 -185 216
-421 380 -632 441 -63 18 -105 22 -195 22 -129 0 -197 -14 -322 -68 l-76 -33
-103 103 c-102 102 -123 116 -147 92z m798 -188 c107 -26 220 -80 334 -162 99
-69 306 -269 306 -294 0 -38 -200 -231 -335 -324 l-47 -33 -71 71 -71 71 26
48 c95 176 23 387 -161 471 -44 20 -71 26 -132 26 -67 0 -86 -5 -144 -33 l-67
-33 -59 58 c-32 32 -59 61 -59 65 0 12 132 60 200 74 95 19 184 17 280 -5z
m-26 -238 c115 -63 162 -204 108 -324 -11 -27 -22 -48 -24 -48 -2 0 -84 81
-182 179 l-179 179 34 18 c79 41 163 39 243 -4z"/>
<path d="M367 1286 c-64 -53 -228 -226 -247 -261 -11 -21 -11 -29 1 -52 23
-46 258 -274 346 -336 226 -160 453 -223 663 -183 101 19 126 40 97 80 -12 17
-17 17 -90 2 -140 -29 -268 -15 -412 45 -142 59 -342 210 -468 353 l-58 65 70
78 c38 43 98 103 135 133 66 55 79 83 54 108 -19 19 -33 14 -91 -32z"/>
<path d="M670 1020 c-27 -51 30 -201 101 -265 98 -88 269 -124 269 -56 0 27
-17 37 -81 50 -114 24 -198 109 -214 220 -4 25 -12 52 -17 59 -16 18 -46 14
-58 -8z"/>
</g>
</svg>
