<?xml version="1.0" standalone="no"?>
<!DOCTYPE svg PUBLIC "-//W3C//DTD SVG 20010904//EN"
 "http://www.w3.org/TR/2001/REC-SVG-20010904/DTD/svg10.dtd">
<svg version="1.0" xmlns="http://www.w3.org/2000/svg"
 width="200.000000pt" height="200.000000pt" viewBox="0 0 200.000000 200.000000"
 preserveAspectRatio="xMidYMid meet">

<g transform="translate(0.000000,200.000000) scale(0.100000,-0.100000)"
fill="#000000" stroke="none">
<path d="M881 1450 c-134 -19 -276 -76 -406 -163 -68 -45 -205 -181 -249 -245
l-29 -42 29 -42 c44 -64 181 -200 249 -245 199 -134 413 -190 622 -163 160 20
287 69 428 163 68 45 205 181 249 245 l29 42 -29 42 c-44 65 -182 200 -252
247 -89 60 -214 117 -304 140 -92 24 -248 33 -337 21z m224 -100 c188 -27 350
-113 498 -263 42 -43 77 -82 77 -87 0 -5 -35 -44 -77 -87 -122 -124 -233 -192
-390 -239 -127 -38 -299 -38 -426 0 -156 47 -267 115 -389 238 -43 43 -78 83
-78 88 0 17 155 167 215 207 184 123 373 171 570 143z"/>
<path d="M917 1266 c-171 -63 -244 -244 -161 -397 53 -96 133 -144 244 -144
112 0 190 47 245 147 26 45 30 64 30 128 0 64 -4 83 -30 128 -32 59 -67 92
-129 124 -51 26 -148 33 -199 14z m161 -107 c25 -13 54 -37 69 -60 99 -150
-61 -337 -222 -259 -137 66 -137 259 -1 321 54 24 100 24 154 -2z"/>
</g>
</svg>
